<svg width="86.569mm" height="87.805mm" version="1.1" viewBox="0 0 86.569 87.805" xmlns="http://www.w3.org/2000/svg">
 <g transform="matrix(.68998 0 0 .68998 1 -.12553)" fill="#232e4a" stroke="#41cd52" stroke-width="2.8986">
  <path d="m27.301 15.738c0 7.7905-6.1118 14.106-13.651 14.106-7.5376 0-13.65-6.316-13.65-14.106 0-7.789 6.1123-14.107 13.65-14.107 7.5391 0 13.651 6.318 13.651 14.107"/>
  <path d="m27.301 63.811c0 7.7905-6.1118 14.106-13.651 14.106-7.5376 0-13.65-6.316-13.65-14.106s6.1123-14.106 13.65-14.106c7.5391 0 13.651 6.3159 13.651 14.106"/>
  <path d="m27.301 111.88c0 7.7896-6.1118 14.107-13.651 14.107-7.5376 0-13.65-6.3174-13.65-14.107 0-7.789 6.1123-14.106 13.65-14.106 7.5391 0 13.651 6.3174 13.651 14.106"/>
  <path d="m74.934 63.811c0 7.7905-6.1124 14.106-13.651 14.106-7.5381 0-13.65-6.316-13.65-14.106s6.1122-14.106 13.65-14.106c7.5385 0 13.651 6.3159 13.651 14.106"/>
  <path d="m74.934 15.738c0 7.7905-6.1124 14.106-13.651 14.106-7.5381 0-13.65-6.316-13.65-14.106 0-7.789 6.1122-14.107 13.65-14.107 7.5385 0 13.651 6.318 13.651 14.107"/>
  <path d="m122.57 63.811c0 7.7905-6.1118 14.106-13.651 14.106-7.5381 0-13.65-6.316-13.65-14.106s6.1118-14.106 13.65-14.106c7.5391 0 13.651 6.3159 13.651 14.106"/>
  <path d="m122.57 15.738c0 7.7905-6.1118 14.106-13.651 14.106-7.5381 0-13.65-6.316-13.65-14.106 0-7.789 6.1118-14.107 13.65-14.107 7.5391 0 13.651 6.318 13.651 14.107"/>
  <path d="m122.57 111.88c0 7.7896-6.1118 14.107-13.651 14.107-7.5381 0-13.65-6.3174-13.65-14.107 0-7.789 6.1118-14.106 13.65-14.106 7.5391 0 13.651 6.3174 13.651 14.106"/>
  <path d="m74.934 111.88c0 7.7896-6.1124 14.107-13.651 14.107-7.5381 0-13.65-6.3174-13.65-14.107 0-7.789 6.1122-14.106 13.65-14.106 7.5385 0 13.651 6.3174 13.651 14.106"/>
 </g>
 <g transform="matrix(2.2401 0 0 2.2401 25.364 -1282.2)">
  <rect y="584" width="16" height="16" fill="none"/>
  <path d="m0 598h13.75l2.25-2.25v-9.75h-13.75l-2.25 2.25z" fill="#41cd52"/>
  <path class="st1" d="m5.955 595.34c-1.0525 0-1.7887-.2832-2.2031-.85072-.41448-.56721-.62168-1.4669-.62168-2.6885 0-1.227.21264-2.1377.63256-2.7321s1.1561-.89432 2.1922-.89432c1.0416 0 1.7723.2944 2.1868.88889.41992.5888.62712 1.4997.62712 2.7321 0 .81256-.08728 1.467-.25632 1.9632-.17448.5016-.45264.88344-.84526 1.1452l.85071 1.3688-1.0416.4856-.89979-1.4778c-.13088.04-.33808.064-.62168.064zm-1.3142-1.576c.22904.3928.67072.5944 1.3197.5944.64896 0 1.0852-.19599 1.3142-.58319.2236-.3872.33808-1.047.33808-1.9686 0-.92705-.11456-1.5978-.34904-2.0177-.23448-.42-.66528-.6272-1.3033-.6272-.63256 0-1.0688.2072-1.3088.6272-.23448.42001-.35448 1.0852-.35448 2.0068 0 .91615.11448 1.576.34352 1.9686z" fill="#fff"/>
  <path class="st1" d="m11.277 590.98v2.2304c0 .41439.0328.6872.09272.82344.06.13605.21816.2016.46352.2016l.8289-.032.0488.88344c-.45264.0872-.79616.13129-1.0361.13129-.57264 0-.96524-.13129-1.1779-.39281-.21264-.2616-.32176-.7576-.32176-1.4888v-2.3503h-.76888v-.94344h.7744v-1.467h1.0961v1.467h1.396v.93792z" fill="#fff"/>
 </g>
</svg>
